
        <svg xmlns="http://www.w3.org/2000/svg" xmlns:xlink="http://www.w3.org/1999/xlink" version="1.1" width="3185.185185185185" 
        height="1051.8518518518517" viewBox="0 0 3185.185185185185 1051.8518518518517">
			<rect fill="#f6f6f6" width="3185.185185185185" height="1051.8518518518517"/>
			<g transform="scale(9.25925925925926) translate(10, 10)">
				<defs id="SvgjsDefs1285"></defs><g id="SvgjsG1286" featureKey="symbolFeature-0" transform="matrix(0.9359999999999999,0,0,0.9359999999999999,-23.30827418518066,-3.7439999999999998)" fill="#111111"><g xmlns="http://www.w3.org/2000/svg"><path d="M82.822,75.221c-0.209-1.529-0.461-3.039-0.818-4.525c-0.367-1.482-0.771-2.953-1.313-4.396   c-0.52-1.451-1.135-2.879-1.912-4.305c-0.381-0.717-0.822-1.424-1.355-2.15c-0.266-0.365-0.561-0.734-0.91-1.117   c-0.18-0.191-0.371-0.387-0.594-0.584c-0.113-0.1-0.234-0.199-0.365-0.301c-0.131-0.1-0.262-0.197-0.482-0.344l-0.07-0.045   l-0.029-0.016l-0.061-0.029L74.898,57.4c0.053,0.037-0.092-0.059-0.086-0.053l-0.049-0.025l-0.096-0.047   c-0.127-0.064-0.256-0.125-0.389-0.18c-0.264-0.115-0.539-0.211-0.816-0.291c-0.557-0.16-1.129-0.256-1.684-0.26   c-1.115-0.018-2.123,0.23-2.977,0.592c-0.533,0.234-1.016,0.506-1.463,0.797v-2.5c0-5.593-9.498-8.064-21.218-8.064   c-11.718,0-20.435,3.342-21.218,8.064v39.75c0,0.424,0.017,0.826,0.041,1.219c0.03,0.484,0.081,0.938,0.148,1.373   C26.464,101.287,35.352,104,46.122,104c10.771,0,19.659-2.713,21.028-6.225c0.068-0.436,0.119-0.889,0.148-1.373   c0.025-0.393,0.041-0.795,0.041-1.219V93.93c0.777,0.271,1.57,0.484,2.363,0.641c0.428,0.082,0.809,0.148,1.273,0.203l0.604,0.072   l0.266,0.031l0.428,0.021c1.059,0.039,2.219-0.111,3.355-0.514c1.131-0.398,2.217-1.045,3.066-1.84   c0.859-0.787,1.525-1.672,2.049-2.551c1.043-1.77,1.527-3.529,1.885-5.199c0.32-1.682,0.434-3.307,0.467-4.898   C83.096,78.309,82.996,76.752,82.822,75.221z M64.438,54.916c-0.111,0.301-0.273,0.572-0.463,0.822   c-0.082,0.109-0.17,0.219-0.266,0.32c-1.945,1.988-8.6,3.465-16.572,3.516c-0.145,0.002-0.288,0.004-0.434,0.004   c-0.542,0-1.079-0.008-1.608-0.021c-7.676-0.188-13.924-1.699-15.556-3.678c-0.063-0.08-0.125-0.164-0.182-0.252   c-0.005-0.008-0.011-0.014-0.015-0.021c-0.011-0.02-0.021-0.037-0.032-0.057c-0.109-0.174-0.204-0.357-0.277-0.551   c-0.321-0.885-0.128-1.848,0.303-2.605c-0.267,0.693-0.377,1.463-0.174,2.145c0.607-2.46,8.225-4.406,17.541-4.406   c9.391,0,17.061,1.977,17.559,4.464c0.266-0.715,0.16-1.544-0.127-2.285C64.566,53.068,64.76,54.032,64.438,54.916z M78.121,84.004   c-0.234,1.357-0.605,2.699-1.24,3.885c-0.629,1.186-1.574,2.195-2.791,2.684c-0.604,0.25-1.262,0.369-1.926,0.393   c-0.68,0.01-1.381-0.02-2.063-0.09c-0.938-0.09-1.865-0.277-2.762-0.553V60.455c0.682-0.381,1.391-0.691,2.127-0.885   c0.65-0.174,1.318-0.248,1.963-0.166c0.645,0.078,1.266,0.326,1.787,0.699c0.471,0.363,0.879,0.947,1.223,1.525   c0.348,0.588,0.646,1.213,0.922,1.852c1.078,2.563,1.793,5.295,2.313,8.043c0.508,2.752,0.803,5.551,0.773,8.336   C78.441,81.252,78.352,82.643,78.121,84.004z"></path><path d="M32.456,45.153c1.078-2.23,1.236-4.616,1.001-6.887c-0.271-2.281-0.968-4.502-1.93-6.627   c-1.024-2.263-1.804-4.855-1.638-7.491c0.117-2.597,1.32-5.313,3.515-6.597c-1.498,1.987-1.91,4.354-1.737,6.588   c0.2,2.263,0.931,4.431,1.942,6.58c1.003,2.327,1.697,4.874,1.617,7.479C35.165,40.756,34.338,43.459,32.456,45.153z"></path><path d="M43.032,43.553c1.719-3.08,2.091-6.567,1.817-9.884c-0.312-3.339-1.309-6.592-2.696-9.681   c-1.464-3.218-2.572-6.841-2.414-10.537C39.844,9.809,41.397,5.992,44.39,4c-2.296,2.695-3.058,6.163-2.875,9.442   c0.208,3.324,1.266,6.522,2.718,9.626c1.43,3.291,2.423,6.87,2.384,10.533C46.595,37.205,45.555,41.009,43.032,43.553z"></path><path d="M55.363,45.438c1.107-2.271,1.277-4.708,1.039-7.03c-0.271-2.332-0.984-4.602-1.965-6.772   c-1.044-2.308-1.841-4.949-1.675-7.635c0.116-2.646,1.335-5.416,3.568-6.733c-1.535,2.021-1.964,4.44-1.791,6.724   c0.201,2.313,0.947,4.53,1.979,6.726c1.023,2.372,1.732,4.969,1.654,7.624C58.111,40.948,57.275,43.703,55.363,45.438z"></path></g></g><g id="SvgjsG1287" featureKey="nameFeature-0" transform="matrix(0.6424160867512662,0,0,0.6424160867512662,71.08889159110906,34.147063153924215)" fill="#111111"><path d="M11.094 16.875 l0 -15.547 l-6.5625 0 l0 37.344 l6.5625 0 l0 -21.797 z M28.984 1.328000000000003 l0 15.547 l-11.406 0 l0 6.0938 l11.406 0 l0 15.703 l6.4844 0 l0 -37.344 l-6.4844 0 z M58.344 32.6562 c-0.78125 -0.15625 -1.5105 -0.3907 -2.1876 -0.7032 c-1.4584 -0.67711 -2.7344 -1.6146 -3.8281 -2.8125 c-1.0416 -1.0938 -1.875 -2.4479 -2.5 -4.0625 c-0.57289 -1.6146 -0.85938 -3.2552 -0.85938 -4.9219 l0 -0.15625 l0 -0.23438 c0 -1.7188 0.28648 -3.3854 0.85938 -5 c0.67711 -1.6666 1.5105 -2.9948 2.5001 -3.9844 c1.0416 -1.1979 2.2916 -2.1094 3.75 -2.7344 c0.88539 -0.41664 1.6406 -0.67703 2.2656 -0.78117 l0 -5.8594 c-1.8229 0.26039 -3.4375 0.70313 -4.8438 1.3281 c-2.2916 0.98961 -4.2448 2.3177 -5.8594 3.9844 s-2.8906 3.6458 -3.8281 5.9374 s-1.4063 4.6875 -1.4063 7.1875 l0 0.15625 l0 0.23438 c0 2.5521 0.46875 4.948 1.4063 7.1876 c0.83336 2.2396 2.0834 4.1927 3.75 5.8594 c1.6666 1.7188 3.6198 3.0469 5.8594 3.9844 c1.4063 0.625 3.0469 1.0677 4.9219 1.3281 l0 -5.9375 z M79.594 20 l0.000076294 -0.23438 c0 -2.5521 -0.46875 -4.948 -1.4063 -7.1876 c-0.9375 -2.2916 -2.2135 -4.2708 -3.8281 -5.9374 c-1.5625 -1.6666 -3.4896 -2.9688 -5.7813 -3.9063 c-1.3021 -0.625 -2.8906 -1.0677 -4.7656 -1.3281 l0 5.9375 l0.9375 0.3125 c0.46875 0.15625 0.83336 0.28648 1.0938 0.39063 c1.4584 0.67711 2.7344 1.6146 3.8281 2.8125 c1.0416 1.0938 1.875 2.4479 2.5 4.0625 c0.57289 1.6146 0.85938 3.2552 0.85938 4.9219 l0 0.15625 l0 0.23438 c0 1.7188 -0.28648 3.3854 -0.85938 5 c-0.67711 1.6666 -1.5105 2.9948 -2.5001 3.9844 c-1.0416 1.1979 -2.2916 2.1094 -3.75 2.7344 c-0.67711 0.3125 -1.3802 0.54688 -2.1094 0.70313 l0 5.9375 c1.5625 -0.20836 3.125 -0.65109 4.6875 -1.3282 c2.1354 -0.88539 4.0885 -2.2135 5.8594 -3.9844 c1.7188 -1.8229 2.9948 -3.802 3.8281 -5.9374 c0.9375 -2.2916 1.4063 -4.6875 1.4063 -7.1875 l0 -0.15625 z M89.0313 1.4059999999999988 l6.4063 0 l0 31.25 l19.531 0 l0 5.9375 l-25.938 0 l0 -37.188 z M132.1406 1.328000000000003 l-7.2656 0 l14.531 22.578 l0 14.766 l7.1094 0 l0 -14.922 z M161.125 1.328000000000003 l-6.7969 0 l-8.5938 12.266 l3.8281 5.1563 z  M218.59375 22.891 l13.828 0 l0 -5.7813 l-13.828 0 l0 5.7813 z M232.42175 27.422 l-5.7813 0.000076294 l0 5.3125 l-5.7031 0 c-1.9791 0 -3.75 -0.3125 -5.3125 -0.9375 c-1.5625 -0.57289 -2.9427 -1.4323 -4.1406 -2.5781 c-1.0938 -1.1979 -1.9531 -2.552 -2.5781 -4.0624 c-0.625 -1.4584 -0.9375 -3.1511 -0.9375 -5.0782 c0 -1.8229 0.3125 -3.5156 0.9375 -5.0781 c0.67711 -1.6666 1.5365 -3.0208 2.5781 -4.0624 c1.1459 -1.1459 2.5261 -2.0573 4.1407 -2.7345 c1.5625 -0.625 3.3334 -0.9375 5.3125 -0.9375 l11.406 0.078125 l0 -5.9375 l-11.406 -0.078125 c-2.9166 0 -5.5989 0.46875 -8.0469 1.4063 c-2.3959 0.9375 -4.4792 2.2396 -6.2501 3.9063 c-1.7188 1.6666 -3.099 3.6458 -4.1406 5.9374 c-0.9375 2.2396 -1.4063 4.6875 -1.4063 7.3438 s0.46875 5.1302 1.4063 7.4219 c1.0416 2.3959 2.4219 4.375 4.1406 5.9375 c1.5625 1.5625 3.6459 2.8906 6.25 3.9844 c2.5 0.9375 5.1823 1.4063 8.0469 1.4063 l11.484 0 l0 -11.25 z M273.49975 38.5937 l-10.078 -14.063 c1.3541 -0.41664 2.552 -0.91141 3.5937 -1.4843 c1.1459 -0.72914 2.0834 -1.5364 2.8125 -2.4218 c0.83336 -0.98961 1.4323 -2.0573 1.797 -3.2032 c0.46875 -1.25 0.70313 -2.6563 0.70313 -4.2188 c0 -1.8229 -0.3125 -3.4635 -0.9375 -4.9219 c-0.625 -1.4063 -1.5365 -2.6302 -2.7344 -3.6719 c-1.1459 -0.98961 -2.6042 -1.7709 -4.3751 -2.3438 c-1.8229 -0.57289 -3.75 -0.85938 -5.7813 -0.85938 l-16.563 0 l0 5.9375 l16.016 0 c2.4479 0 4.3489 0.52086 5.703 1.5625 s2.0313 2.6041 2.0313 4.6875 c0 1.9271 -0.67711 3.4375 -2.0313 4.5313 c-1.3541 1.1459 -3.2291 1.7188 -5.625 1.7188 l-16.094 0 l0 18.75 l6.4844 0 l0 -12.969 l8.2031 0 l9.1406 12.969 l7.7344 0 l0 0 z M309.42175 38.5937 l7.0313 0 l-13.594 -37.266 l-7.1094 0 l7.8906 22.266 z M280.67185 38.5937 l6.875 0 l8.125 -19.844 l-3.3594 -8.9063 z M342.99975 16.875 l0 -15.547 l-6.5625 0 l0 37.344 l6.5625 0 l0 -21.797 z M367.75005 1.4059999999999988 l6.4063 0 l0 31.25 l19.531 0 l0 5.9375 l-25.938 0 l0 -37.188 z"></path></g>
			</g>
		</svg>
	